<?xml version="1.0" encoding="utf-8"?>
<!-- Generator: Adobe Illustrator 24.0.2, SVG Export Plug-In . SVG Version: 6.00 Build 0)  -->
<svg version="1.1" id="Layer_1" xmlns="http://www.w3.org/2000/svg" xmlns:xlink="http://www.w3.org/1999/xlink" x="0px" y="0px"
	 viewBox="0 0 89 89" style="enable-background:new 0 0 89 89;" xml:space="preserve">
<style type="text/css">
	.st0{fill:#047FF0;}
	.st1{fill:#FFFFFF;}
	.st2{fill:url(#SVGID_1_);}
	.st3{fill:url(#SVGID_2_);}
</style>
<g>
	<g>
		<path class="st0" d="M14.29,72.58c-0.02,0.02-0.04,0.03-0.07,0.03h-1.68c-0.03,0-0.04,0.01-0.04,0.04v1.47
			c0,0.03,0.01,0.04,0.04,0.04h1c0.03,0,0.05,0.01,0.07,0.03c0.02,0.02,0.03,0.04,0.03,0.07v0.6c0,0.03-0.01,0.05-0.03,0.07
			s-0.04,0.03-0.07,0.03h-1c-0.03,0-0.04,0.01-0.04,0.04v1.48c0,0.03,0.01,0.04,0.04,0.04h1.68c0.03,0,0.05,0.01,0.07,0.03
			c0.02,0.02,0.03,0.04,0.03,0.07v0.59c0,0.03-0.01,0.05-0.03,0.07c-0.02,0.02-0.04,0.03-0.07,0.03h-2.53
			c-0.03,0-0.05-0.01-0.07-0.03c-0.02-0.02-0.03-0.04-0.03-0.07v-5.25c0-0.03,0.01-0.05,0.03-0.07c0.02-0.02,0.04-0.03,0.07-0.03
			h2.53c0.03,0,0.05,0.01,0.07,0.03c0.02,0.02,0.03,0.04,0.03,0.07v0.59C14.31,72.54,14.3,72.56,14.29,72.58z"/>
		<path class="st0" d="M17.24,77.18l-0.15-0.82c0-0.03-0.02-0.04-0.05-0.04h-1.13c-0.03,0-0.05,0.01-0.05,0.04l-0.15,0.82
			c-0.01,0.06-0.04,0.09-0.1,0.09H14.9c-0.07,0-0.1-0.03-0.09-0.1l1.15-5.26c0.01-0.06,0.04-0.08,0.1-0.08h0.82
			c0.06,0,0.09,0.03,0.1,0.08l1.15,5.26v0.03c0,0.05-0.03,0.07-0.09,0.07h-0.72C17.28,77.27,17.24,77.24,17.24,77.18z M16.04,75.62
			h0.86c0.03,0,0.04-0.01,0.04-0.04l-0.45-2.46c-0.01-0.02-0.01-0.02-0.02-0.02s-0.02,0.01-0.02,0.02L16,75.58
			C16,75.61,16.01,75.62,16.04,75.62z"/>
		<path class="st0" d="M18.74,76.94c-0.26-0.26-0.4-0.6-0.4-1.02v-0.2c0-0.03,0.01-0.05,0.03-0.07c0.02-0.02,0.04-0.03,0.07-0.03
			h0.71c0.03,0,0.05,0.01,0.07,0.03c0.02,0.02,0.03,0.04,0.03,0.07v0.16c0,0.2,0.05,0.37,0.15,0.49c0.1,0.12,0.23,0.19,0.39,0.19
			s0.29-0.06,0.4-0.17c0.1-0.12,0.16-0.27,0.16-0.46c0-0.13-0.03-0.25-0.09-0.35s-0.14-0.19-0.24-0.28c-0.1-0.09-0.27-0.21-0.5-0.38
			c-0.26-0.19-0.47-0.35-0.63-0.5c-0.16-0.15-0.29-0.32-0.4-0.53c-0.11-0.2-0.16-0.44-0.16-0.71c0-0.43,0.13-0.77,0.39-1.03
			c0.26-0.25,0.6-0.38,1.03-0.38c0.43,0,0.78,0.13,1.04,0.4c0.26,0.27,0.4,0.62,0.4,1.06v0.19c0,0.03-0.01,0.05-0.03,0.07
			c-0.02,0.02-0.04,0.03-0.07,0.03h-0.7c-0.03,0-0.05-0.01-0.07-0.03c-0.02-0.02-0.03-0.04-0.03-0.07v-0.2
			c0-0.2-0.05-0.36-0.15-0.49c-0.1-0.12-0.23-0.18-0.4-0.18c-0.16,0-0.28,0.06-0.38,0.17c-0.1,0.11-0.15,0.27-0.15,0.46
			c0,0.19,0.05,0.34,0.16,0.47c0.11,0.13,0.31,0.31,0.63,0.54c0.32,0.23,0.55,0.42,0.72,0.57s0.29,0.31,0.37,0.49
			c0.09,0.18,0.13,0.39,0.13,0.63c0,0.44-0.13,0.79-0.4,1.06c-0.26,0.27-0.61,0.4-1.04,0.4S19,77.2,18.74,76.94z"/>
		<path class="st0" d="M22.62,77.23c-0.02-0.02-0.03-0.04-0.03-0.07v-2.12L22.58,75l-1.08-3.06c-0.01-0.01-0.01-0.02-0.01-0.04
			c0-0.05,0.03-0.07,0.09-0.07h0.75c0.06,0,0.09,0.03,0.11,0.08l0.58,2c0.01,0.02,0.01,0.02,0.02,0.02s0.02-0.01,0.02-0.02l0.58-2
			c0.02-0.05,0.05-0.08,0.11-0.08h0.75c0.03,0,0.05,0.01,0.07,0.03c0.02,0.02,0.02,0.04,0.01,0.08L23.5,75l-0.01,0.05v2.12
			c0,0.03-0.01,0.05-0.03,0.07c-0.02,0.02-0.04,0.03-0.07,0.03h-0.71C22.66,77.26,22.64,77.25,22.62,77.23z"/>
		<path class="st0" d="M27.1,76.93c-0.27-0.27-0.4-0.62-0.4-1.06v-2.65c0-0.45,0.13-0.8,0.4-1.06c0.27-0.26,0.62-0.39,1.06-0.39
			c0.45,0,0.8,0.13,1.07,0.39s0.4,0.62,0.4,1.06v0.09c0,0.03-0.01,0.05-0.03,0.07s-0.04,0.03-0.07,0.03l-0.72,0.03
			c-0.06,0-0.09-0.03-0.09-0.09v-0.19c0-0.18-0.05-0.33-0.16-0.44c-0.1-0.11-0.24-0.17-0.41-0.17c-0.17,0-0.3,0.06-0.4,0.17
			c-0.1,0.11-0.16,0.26-0.16,0.44v2.78c0,0.18,0.05,0.33,0.16,0.44c0.1,0.11,0.24,0.17,0.4,0.17c0.17,0,0.31-0.06,0.41-0.17
			c0.1-0.11,0.16-0.26,0.16-0.44v-0.19c0-0.03,0.01-0.05,0.03-0.07c0.02-0.02,0.04-0.03,0.07-0.03l0.72,0.03
			c0.03,0,0.05,0.01,0.07,0.03s0.03,0.04,0.03,0.07v0.09c0,0.44-0.13,0.79-0.4,1.06c-0.27,0.27-0.63,0.4-1.07,0.4
			C27.72,77.33,27.36,77.2,27.1,76.93z"/>
		<path class="st0" d="M32.4,77.19l-0.66-2.23c-0.01-0.02-0.02-0.03-0.04-0.03h-0.41c-0.03,0-0.04,0.01-0.04,0.04v2.21
			c0,0.03-0.01,0.05-0.03,0.07c-0.02,0.02-0.04,0.03-0.07,0.03h-0.71c-0.03,0-0.05-0.01-0.07-0.03c-0.02-0.02-0.03-0.04-0.03-0.07
			v-5.25c0-0.03,0.01-0.05,0.03-0.07c0.02-0.02,0.04-0.03,0.07-0.03h1.46c0.27,0,0.52,0.07,0.73,0.2c0.21,0.13,0.37,0.32,0.49,0.56
			c0.12,0.24,0.18,0.52,0.18,0.83c0,0.32-0.06,0.6-0.19,0.83c-0.12,0.23-0.3,0.41-0.52,0.53c-0.02,0-0.03,0.02-0.02,0.05l0.76,2.34
			c0.01,0.01,0.01,0.02,0.01,0.04c0,0.05-0.03,0.07-0.09,0.07H32.5C32.44,77.27,32.41,77.24,32.4,77.19z M31.24,72.64v1.55
			c0,0.03,0.01,0.04,0.04,0.04h0.47c0.19,0,0.34-0.07,0.46-0.22c0.12-0.15,0.17-0.34,0.17-0.59c0-0.25-0.06-0.45-0.17-0.59
			c-0.12-0.15-0.27-0.22-0.46-0.22h-0.47C31.26,72.6,31.24,72.62,31.24,72.64z"/>
		<path class="st0" d="M36.61,72.58c-0.02,0.02-0.04,0.03-0.07,0.03h-1.68c-0.03,0-0.04,0.01-0.04,0.04v1.47
			c0,0.03,0.01,0.04,0.04,0.04h1c0.03,0,0.05,0.01,0.07,0.03c0.02,0.02,0.03,0.04,0.03,0.07v0.6c0,0.03-0.01,0.05-0.03,0.07
			s-0.04,0.03-0.07,0.03h-1c-0.03,0-0.04,0.01-0.04,0.04v1.48c0,0.03,0.01,0.04,0.04,0.04h1.68c0.03,0,0.05,0.01,0.07,0.03
			c0.02,0.02,0.03,0.04,0.03,0.07v0.59c0,0.03-0.01,0.05-0.03,0.07c-0.02,0.02-0.04,0.03-0.07,0.03h-2.53
			c-0.03,0-0.05-0.01-0.07-0.03c-0.02-0.02-0.03-0.04-0.03-0.07v-5.25c0-0.03,0.01-0.05,0.03-0.07c0.02-0.02,0.04-0.03,0.07-0.03
			h2.53c0.03,0,0.05,0.01,0.07,0.03c0.02,0.02,0.03,0.04,0.03,0.07v0.59C36.64,72.54,36.63,72.56,36.61,72.58z"/>
		<path class="st0" d="M39.56,77.18l-0.15-0.82c0-0.03-0.02-0.04-0.05-0.04h-1.13c-0.03,0-0.05,0.01-0.05,0.04l-0.15,0.82
			c-0.01,0.06-0.04,0.09-0.1,0.09h-0.71c-0.07,0-0.1-0.03-0.09-0.1l1.15-5.26c0.01-0.06,0.04-0.08,0.1-0.08h0.82
			c0.06,0,0.09,0.03,0.1,0.08l1.15,5.26v0.03c0,0.05-0.03,0.07-0.09,0.07h-0.72C39.6,77.27,39.57,77.24,39.56,77.18z M38.37,75.62
			h0.86c0.03,0,0.04-0.01,0.04-0.04l-0.45-2.46c-0.01-0.02-0.01-0.02-0.02-0.02s-0.02,0.01-0.02,0.02l-0.44,2.46
			C38.32,75.61,38.33,75.62,38.37,75.62z"/>
		<path class="st0" d="M43.4,71.85c0.02,0.02,0.03,0.04,0.03,0.07v0.59c0,0.03-0.01,0.05-0.03,0.07c-0.02,0.02-0.04,0.03-0.07,0.03
			h-0.99c-0.03,0-0.04,0.01-0.04,0.04v4.53c0,0.03-0.01,0.05-0.03,0.07c-0.02,0.02-0.04,0.03-0.07,0.03H41.5
			c-0.03,0-0.05-0.01-0.07-0.03c-0.02-0.02-0.03-0.04-0.03-0.07v-4.53c0-0.03-0.01-0.04-0.04-0.04h-0.93
			c-0.03,0-0.05-0.01-0.07-0.03c-0.02-0.02-0.03-0.04-0.03-0.07v-0.59c0-0.03,0.01-0.05,0.03-0.07c0.02-0.02,0.04-0.03,0.07-0.03
			h2.9C43.36,71.83,43.38,71.83,43.4,71.85z"/>
		<path class="st0" d="M44.08,77.24c-0.02-0.02-0.03-0.04-0.03-0.07v-5.25c0-0.03,0.01-0.05,0.03-0.07
			c0.02-0.02,0.04-0.03,0.07-0.03h0.71c0.03,0,0.05,0.01,0.07,0.03c0.02,0.02,0.03,0.04,0.03,0.07v5.25c0,0.03-0.01,0.05-0.03,0.07
			c-0.02,0.02-0.04,0.03-0.07,0.03h-0.71C44.12,77.27,44.1,77.26,44.08,77.24z"/>
		<path class="st0" d="M46.71,77.18l-1.11-5.25l-0.01-0.03c0-0.05,0.03-0.07,0.08-0.07h0.79c0.06,0,0.1,0.03,0.1,0.08l0.65,3.74
			c0,0.02,0.01,0.02,0.02,0.02c0.01,0,0.02-0.01,0.02-0.02l0.63-3.74c0-0.06,0.04-0.08,0.1-0.08h0.76c0.07,0,0.09,0.03,0.08,0.1
			l-1.12,5.25c-0.01,0.06-0.04,0.09-0.1,0.09h-0.79C46.75,77.27,46.72,77.24,46.71,77.18z"/>
		<path class="st0" d="M52.14,72.58c-0.02,0.02-0.04,0.03-0.07,0.03H50.4c-0.03,0-0.04,0.01-0.04,0.04v1.47
			c0,0.03,0.01,0.04,0.04,0.04h1c0.03,0,0.05,0.01,0.07,0.03c0.02,0.02,0.03,0.04,0.03,0.07v0.6c0,0.03-0.01,0.05-0.03,0.07
			c-0.02,0.02-0.04,0.03-0.07,0.03h-1c-0.03,0-0.04,0.01-0.04,0.04v1.48c0,0.03,0.01,0.04,0.04,0.04h1.68
			c0.03,0,0.05,0.01,0.07,0.03c0.02,0.02,0.03,0.04,0.03,0.07v0.59c0,0.03-0.01,0.05-0.03,0.07c-0.02,0.02-0.04,0.03-0.07,0.03
			h-2.53c-0.03,0-0.05-0.01-0.07-0.03c-0.02-0.02-0.03-0.04-0.03-0.07v-5.25c0-0.03,0.01-0.05,0.03-0.07
			c0.02-0.02,0.04-0.03,0.07-0.03h2.53c0.03,0,0.05,0.01,0.07,0.03c0.02,0.02,0.03,0.04,0.03,0.07v0.59
			C52.17,72.54,52.16,72.56,52.14,72.58z"/>
		<path class="st0" d="M54.64,76.94c-0.26-0.26-0.4-0.6-0.4-1.02v-0.2c0-0.03,0.01-0.05,0.03-0.07c0.02-0.02,0.04-0.03,0.07-0.03
			h0.71c0.03,0,0.05,0.01,0.07,0.03c0.02,0.02,0.03,0.04,0.03,0.07v0.16c0,0.2,0.05,0.37,0.15,0.49c0.1,0.12,0.23,0.19,0.39,0.19
			c0.16,0,0.29-0.06,0.4-0.17c0.1-0.12,0.16-0.27,0.16-0.46c0-0.13-0.03-0.25-0.09-0.35c-0.06-0.1-0.14-0.19-0.24-0.28
			s-0.27-0.21-0.5-0.38c-0.26-0.19-0.47-0.35-0.63-0.5c-0.16-0.15-0.29-0.32-0.4-0.53c-0.11-0.2-0.16-0.44-0.16-0.71
			c0-0.43,0.13-0.77,0.39-1.03c0.26-0.25,0.6-0.38,1.03-0.38c0.43,0,0.78,0.13,1.04,0.4c0.26,0.27,0.4,0.62,0.4,1.06v0.19
			c0,0.03-0.01,0.05-0.03,0.07c-0.02,0.02-0.04,0.03-0.07,0.03h-0.7c-0.03,0-0.05-0.01-0.07-0.03c-0.02-0.02-0.03-0.04-0.03-0.07
			v-0.2c0-0.2-0.05-0.36-0.15-0.49c-0.1-0.12-0.23-0.18-0.4-0.18c-0.16,0-0.28,0.06-0.38,0.17c-0.1,0.11-0.15,0.27-0.15,0.46
			c0,0.19,0.05,0.34,0.16,0.47c0.11,0.13,0.32,0.31,0.63,0.54c0.32,0.23,0.55,0.42,0.72,0.57c0.16,0.15,0.28,0.31,0.37,0.49
			c0.09,0.18,0.13,0.39,0.13,0.63c0,0.44-0.13,0.79-0.4,1.06c-0.26,0.27-0.61,0.4-1.04,0.4C55.25,77.33,54.9,77.2,54.64,76.94z"/>
		<path class="st0" d="M58.08,76.93c-0.27-0.27-0.41-0.63-0.41-1.07v-2.61c0-0.45,0.14-0.8,0.41-1.07c0.27-0.27,0.63-0.4,1.08-0.4
			c0.45,0,0.81,0.13,1.08,0.4s0.41,0.63,0.41,1.07v2.61c0,0.45-0.14,0.8-0.41,1.07s-0.63,0.4-1.08,0.4
			C58.71,77.33,58.36,77.2,58.08,76.93z M59.59,76.37c0.11-0.12,0.16-0.28,0.16-0.48V73.2c0-0.2-0.05-0.36-0.16-0.48
			c-0.11-0.12-0.25-0.18-0.43-0.18c-0.18,0-0.32,0.06-0.42,0.18c-0.11,0.12-0.16,0.28-0.16,0.48v2.69c0,0.2,0.05,0.36,0.16,0.48
			c0.11,0.12,0.25,0.18,0.42,0.18C59.34,76.55,59.48,76.49,59.59,76.37z"/>
		<path class="st0" d="M61.43,77.24c-0.02-0.02-0.03-0.04-0.03-0.07v-5.25c0-0.03,0.01-0.05,0.03-0.07
			c0.02-0.02,0.04-0.03,0.07-0.03h0.72c0.03,0,0.05,0.01,0.07,0.03c0.02,0.02,0.03,0.04,0.03,0.07v4.53c0,0.03,0.01,0.04,0.04,0.04
			h1.68c0.03,0,0.05,0.01,0.07,0.03c0.02,0.02,0.03,0.04,0.03,0.07v0.59c0,0.03-0.01,0.05-0.03,0.07c-0.02,0.02-0.04,0.03-0.07,0.03
			h-2.53C61.47,77.27,61.44,77.26,61.43,77.24z"/>
		<path class="st0" d="M64.99,76.9c-0.27-0.29-0.4-0.67-0.4-1.14v-3.84c0-0.03,0.01-0.05,0.03-0.07c0.02-0.02,0.04-0.03,0.07-0.03
			h0.71c0.03,0,0.05,0.01,0.07,0.03c0.02,0.02,0.03,0.04,0.03,0.07v3.93c0,0.21,0.05,0.38,0.16,0.51c0.1,0.13,0.24,0.19,0.41,0.19
			c0.17,0,0.31-0.07,0.41-0.19c0.1-0.13,0.16-0.3,0.16-0.51v-3.93c0-0.03,0.01-0.05,0.03-0.07c0.02-0.02,0.04-0.03,0.07-0.03h0.72
			c0.03,0,0.05,0.01,0.07,0.03c0.02,0.02,0.03,0.04,0.03,0.07v3.84c0,0.47-0.13,0.85-0.4,1.14c-0.27,0.29-0.62,0.43-1.06,0.43
			C65.62,77.33,65.26,77.19,64.99,76.9z"/>
		<path class="st0" d="M71.2,71.85c0.02,0.02,0.03,0.04,0.03,0.07v0.59c0,0.03-0.01,0.05-0.03,0.07c-0.02,0.02-0.04,0.03-0.07,0.03
			h-0.99c-0.03,0-0.04,0.01-0.04,0.04v4.53c0,0.03-0.01,0.05-0.03,0.07c-0.02,0.02-0.04,0.03-0.07,0.03H69.3
			c-0.03,0-0.05-0.01-0.07-0.03c-0.02-0.02-0.03-0.04-0.03-0.07v-4.53c0-0.03-0.01-0.04-0.04-0.04h-0.93
			c-0.03,0-0.05-0.01-0.07-0.03c-0.02-0.02-0.03-0.04-0.03-0.07v-0.59c0-0.03,0.01-0.05,0.03-0.07c0.02-0.02,0.04-0.03,0.07-0.03
			h2.9C71.16,71.83,71.18,71.83,71.2,71.85z"/>
		<path class="st0" d="M71.88,77.24c-0.02-0.02-0.03-0.04-0.03-0.07v-5.25c0-0.03,0.01-0.05,0.03-0.07
			c0.02-0.02,0.04-0.03,0.07-0.03h0.72c0.03,0,0.05,0.01,0.07,0.03c0.02,0.02,0.03,0.04,0.03,0.07v5.25c0,0.03-0.01,0.05-0.03,0.07
			c-0.02,0.02-0.04,0.03-0.07,0.03h-0.72C71.92,77.27,71.9,77.26,71.88,77.24z"/>
		<path class="st0" d="M73.91,76.93c-0.27-0.27-0.41-0.63-0.41-1.07v-2.61c0-0.45,0.14-0.8,0.41-1.07c0.27-0.27,0.63-0.4,1.08-0.4
			c0.45,0,0.81,0.13,1.08,0.4s0.41,0.63,0.41,1.07v2.61c0,0.45-0.14,0.8-0.41,1.07s-0.63,0.4-1.08,0.4
			C74.54,77.33,74.18,77.2,73.91,76.93z M75.42,76.37c0.11-0.12,0.16-0.28,0.16-0.48V73.2c0-0.2-0.05-0.36-0.16-0.48
			c-0.11-0.12-0.25-0.18-0.43-0.18c-0.18,0-0.32,0.06-0.42,0.18C74.46,72.85,74.4,73,74.4,73.2v2.69c0,0.2,0.05,0.36,0.16,0.48
			c0.11,0.12,0.25,0.18,0.42,0.18C75.16,76.55,75.31,76.49,75.42,76.37z"/>
		<path class="st0" d="M79.46,71.85c0.02-0.02,0.04-0.03,0.07-0.03h0.71c0.03,0,0.05,0.01,0.07,0.03c0.02,0.02,0.03,0.04,0.03,0.07
			v5.25c0,0.03-0.01,0.05-0.03,0.07c-0.02,0.02-0.04,0.03-0.07,0.03h-0.82c-0.05,0-0.09-0.03-0.1-0.08l-1.16-3.3
			c0-0.02-0.01-0.02-0.03-0.02c-0.01,0-0.02,0.01-0.02,0.03l0.01,3.27c0,0.03-0.01,0.05-0.03,0.07c-0.02,0.02-0.04,0.03-0.07,0.03
			h-0.71c-0.03,0-0.05-0.01-0.07-0.03c-0.02-0.02-0.03-0.04-0.03-0.07v-5.25c0-0.03,0.01-0.05,0.03-0.07
			c0.02-0.02,0.04-0.03,0.07-0.03h0.8c0.05,0,0.09,0.03,0.1,0.08l1.17,3.27c0,0.02,0.01,0.02,0.03,0.02c0.01,0,0.02-0.01,0.02-0.03
			v-3.25C79.43,71.89,79.44,71.87,79.46,71.85z"/>
	</g>
	<g>
		<path class="st1" d="M40.93,32.34l-21.14,0.05l57.33-14.23L72.49,10L8.25,25.62l2.2,6.37v2.7l-0.02,6.26H71.4v19.36H50.27v8.71
			h30.48V32.25L40.93,32.34z M71.64,12.21l2.58,4.71l-6.67,1.55L71.64,12.21z M68.93,12.8l-4.64,6.65l-6.92,1.67l4.24-6.56
			L68.93,12.8z M58.4,15.38l-4.64,6.65l-6.92,1.67l4.24-6.56L58.4,15.38z M48.16,17.79l-4.64,6.65l-6.92,1.67l4.24-6.56L48.16,17.79
			z M37.71,20.45l-4.64,6.65l-6.92,1.67l4.24-6.56L37.71,20.45z M27.11,23.12l-4.64,6.65l-6.92,1.67l4.24-6.56L27.11,23.12z
			 M10.26,27.28l6.24-1.6l-4.14,6.17L10.26,27.28z M13.01,39.32V34.1l6.46,5.22H13.01z M23.1,39.32l-6.86-5.42h7.22l7.26,5.42H23.1z
			 M33.97,39.32l-6.86-5.42h7.22l6.59,4.92l0.66,0.49H33.97z M45.06,39.32l-4.13-3.26l-2.73-2.15h7.22l7.26,5.42H45.06z
			 M55.78,39.32l-6.86-5.42h7.22l7.26,5.42H55.78z M66.6,39.32l-6.86-5.42h7.22l7.26,5.42H66.6z M70.89,33.91h7.21l0.04,5.42
			L70.89,33.91z"/>
		<linearGradient id="SVGID_1_" gradientUnits="userSpaceOnUse" x1="5.0244" y1="75.6447" x2="33.0089" y2="47.6602">
			<stop  offset="0" style="stop-color:#3F95DD"/>
			<stop  offset="0.4722" style="stop-color:#1A8DE7"/>
			<stop  offset="1" style="stop-color:#047FF0"/>
		</linearGradient>
		<path class="st2" d="M19.79,60.32v-5.33h16.07v-0.08c-0.64-1.29-0.99-2.74-0.99-4.28c0-1.54,0.36-2.99,0.99-4.28v-0.08H19.79
			v-5.33h-9.36l-0.1,28.07h30.6v-8.71H19.79z"/>
		<path class="st1" d="M41.19,50.82c0.09,2.28,1.97,4.13,4.26,4.18c0.88,0.02,1.7-0.22,2.4-0.66v5.02c-0.73,0.17-1.5,0.26-2.29,0.26
			c-5.27,0-9.53-4.02-9.53-8.97c0-4.95,4.27-8.97,9.53-8.97c0.79,0,1.56,0.09,2.29,0.26v5.02c-0.67-0.42-1.46-0.66-2.3-0.66
			C43.07,46.28,41.09,48.33,41.19,50.82z"/>
		<linearGradient id="SVGID_2_" gradientUnits="userSpaceOnUse" x1="14.469" y1="85.0893" x2="42.4535" y2="57.1048">
			<stop  offset="0" style="stop-color:#3F95DD"/>
			<stop  offset="0.4722" style="stop-color:#1A8DE7"/>
			<stop  offset="1" style="stop-color:#047FF0"/>
		</linearGradient>
		<polygon class="st3" points="58.37,50.64 53.54,54.97 49.14,58.92 48.41,59.58 48.41,41.7 49.14,42.36 53.54,46.3 		"/>
	</g>
</g>
</svg>
